PathFileType	4	(X/Y/Z)	D:\Documents\Paper\paper_current\paper_step_1_data\data_step_3\marker\30DL\subject_01.tsv
DataRate	CameraRate	NumFrames	NumMarkers	Units	OrigDataRate	OrigDataStartFrame	OrigNumFrames
200	200	11	43	mm	200	4869	200
Frame#	Time	Top.Head			L.Acromium			R.Acromium			Sternum			L.ASIS			R.ASIS			V.Sacral			R.Knee.Lat			R.Knee.Med			L.Knee.Lat			L.Knee.Med			L.Ankle.Lat			L.Toe.Tip			R.Heel			R.Ankle.Med			R.Ankle.Lat			L.Toe.Med			L.Toe.Lat			L.Heel			L.Ankle.Med			L.Shank1			L.Shank2			R.Toe.Tip			R.Toe.Med			R.Toe.Lat			L.Thigh2			L.Thigh1			L.Thigh3			R.Thigh3			R.Thigh1			R.Thigh2			R.Shank1			R.Shank2			R.Shank3			L.Shank3			L.Shank4			R.Shank4			L.Thigh4			R.Thigh4			R.Heel.Lat			R.Heel.Med			L.Heel.Lat			L.Heel.Med		
		X1	Y1	Z1	X2	Y2	Z2	X3	Y3	Z3	X4	Y4	Z4	X5	Y5	Z5	X6	Y6	Z6	X7	Y7	Z7	X8	Y8	Z8	X9	Y9	Z9	X10	Y10	Z10	X11	Y11	Z11	X12	Y12	Z12	X13	Y13	Z13	X14	Y14	Z14	X15	Y15	Z15	X16	Y16	Z16	X17	Y17	Z17	X18	Y18	Z18	X19	Y19	Z19	X20	Y20	Z20	X21	Y21	Z21	X22	Y22	Z22	X23	Y23	Z23	X24	Y24	Z24	X25	Y25	Z25	X26	Y26	Z26	X27	Y27	Z27	X28	Y28	Z28	X29	Y29	Z29	X30	Y30	Z30	X31	Y31	Z31	X32	Y32	Z32	X33	Y33	Z33	X34	Y34	Z34	X35	Y35	Z35	X36	Y36	Z36	X37	Y37	Z37	X38	Y38	Z38	X39	Y39	Z39	X40	Y40	Z40	X41	Y41	Z41	X42	Y42	Z42	X43	Y43	Z43
5467	27.33	202.677	1611.29	-684.855	-91.263	1424.726	-760.94	80.512	1392.6	-479.494	69.528	1324.038	-670.563	-44.856	924.55	-784.645	97.201	921.341	-596.776	-101.891	932.405	-585.433	188.836	476.501	-609.392	109.77	455.477	-689.408	-105.128	485.691	-857.462	-33.397	451.432	-772.527	-322.488	195.579	-794.23	-216.805	54.409	-869.1	144.412	43.971	-522.189	167.558	111.433	-640.033	221.388	107.066	-570.134	-228.69	57.91	-796.788	-302.348	94.058	-863.777	-399.144	184.385	-703.235	-269.485	181.075	-726.444	-124.405	398.312	-871.296	-174.277	340.152	-878.25	312.16	49.384	-757.391	242.156	48.138	-728.884	311.542	35.845	-644.36	-54.715	628.146	-873.632	-64.665	709.95	-862.294	-126.448	695.646	-839.399	126.285	627.671	-557.342	180.984	642.003	-588.93	193.165	562.459	-611.593	243.871	398.33	-628.291	250.942	313.325	-615.073	212.617	406.016	-572.954	-170.142	441.405	-860.165	-227.791	371.733	-853.758	218.102	322.951	-561.206	-117.494	610.69	-855.723	139.219	545.162	-579.962	211.977	36.688	-530.352	137.842	31.761	-599.407	-397.949	154.072	-772.337	-332.229	135.582	-691.314
5468	27.335	198.656	1610.293	-685.125	-94.387	1422.812	-762.91	75.852	1391.269	-480.388	65.999	1322.412	-671.324	-47.062	923.054	-786.315	94.25	920.131	-597.883	-104.626	930.365	-587.281	188.173	476.074	-611.252	109.011	454.678	-691.074	-109.003	483.778	-858.127	-38.134	449.362	-772.512	-328.077	194.41	-797.161	-221.982	52.752	-870.339	144.394	43.721	-522.199	167.352	111.066	-640.205	221.284	106.952	-570.332	-234.746	56.334	-798.11	-307.362	92.566	-866.332	-406.027	183.548	-707.115	-276.136	179.858	-728.505	-128.349	395.996	-871.732	-177.982	339.671	-880.486	312.205	49.222	-757.458	242.191	48.08	-728.944	311.592	35.788	-644.353	-57.645	626.046	-874.23	-67.154	708.065	-863.374	-129.05	694.102	-840.681	125.222	627.018	-559.477	179.357	641.522	-590.772	192.048	562.009	-613.482	243.329	397.927	-629.998	250.516	312.936	-616.425	212.747	406.226	-574.12	-174.15	439.437	-861.521	-231.797	370.453	-856.221	217.887	322.874	-562.536	-120.597	608.909	-856.504	138.265	544.474	-581.642	211.914	36.513	-530.394	137.853	31.525	-599.438	-404.021	153.101	-776.155	-339.534	134.348	-694.354
5469	27.34	194.596	1609.17	-685.288	-97.573	1420.874	-764.863	71.129	1389.905	-481.284	62.418	1320.771	-672.091	-49.406	921.545	-788.034	91.216	918.92	-599.008	-107.311	928.247	-589.227	187.453	475.668	-613.098	108.218	453.897	-692.793	-112.927	481.896	-858.714	-42.941	447.358	-772.45	-333.407	193.06	-800.031	-227.027	51.019	-871.51	144.368	43.532	-522.233	167.158	110.709	-640.417	221.153	106.864	-570.553	-240.601	54.622	-799.454	-312.219	90.822	-868.813	-412.622	182.517	-710.915	-282.506	178.453	-730.549	-132.234	393.848	-872.292	-181.719	338.902	-882.549	312.259	49.049	-757.529	242.23	48.016	-729.012	311.639	35.736	-644.351	-60.653	623.95	-874.738	-69.834	706.158	-864.385	-131.715	692.588	-841.93	123.388	626.116	-560.876	178.076	641.187	-593.136	190.884	561.727	-615.344	243.041	397.369	-630.558	249.998	312.656	-617.707	211.641	405.595	-576.201	-178.149	437.507	-862.853	-236.024	368.242	-857.741	217.518	322.775	-563.751	-123.735	607.136	-857.184	137.368	543.737	-583.515	211.615	36.129	-530.155	137.88	31.336	-599.507	-410.094	153.078	-780.587	-346.539	132.923	-697.322
5470	27.345	190.538	1607.974	-685.523	-100.828	1418.923	-766.785	66.335	1388.516	-482.172	58.791	1319.129	-672.868	-51.864	920.039	-789.697	88.094	917.716	-600.153	-109.936	926.056	-591.284	186.653	475.283	-614.909	107.378	453.137	-694.544	-116.923	480.054	-859.216	-47.838	445.426	-772.331	-338.477	191.489	-802.837	-231.875	49.322	-872.6	144.336	43.402	-522.289	166.975	110.362	-640.669	220.997	106.806	-570.795	-246.211	52.824	-800.796	-316.887	88.812	-871.21	-418.931	181.22	-714.634	-288.588	176.848	-732.571	-136.059	391.85	-872.966	-185.518	337.655	-884.29	312.321	48.867	-757.603	242.273	47.946	-729.086	311.683	35.69	-644.356	-63.744	621.856	-875.153	-72.5	704.38	-865.264	-134.438	691.123	-843.174	121.954	625.442	-562.563	176.29	640.728	-595.027	189.677	561.577	-617.274	242.409	397.091	-632.078	249.441	312.344	-618.964	211.534	405.859	-577.241	-182.228	435.362	-863.984	-240.942	363.564	-857.167	216.869	322.531	-565.096	-126.949	605.428	-857.795	136.352	543.107	-585.312	211.607	36.085	-530.21	137.928	31.194	-599.614	-415.661	151.84	-784.179	-353.215	131.288	-700.201
5471	27.35	186.425	1606.747	-685.753	-104.155	1416.97	-768.665	61.465	1387.113	-483.044	55.121	1317.496	-673.66	-54.447	918.555	-791.414	84.882	916.527	-601.317	-112.526	923.819	-593.44	185.752	474.924	-616.659	106.475	452.399	-696.3	-121.014	478.253	-859.627	-52.84	443.567	-772.146	-343.292	189.668	-805.568	-236.445	47.79	-873.589	144.3	43.327	-522.363	166.804	110.028	-640.955	220.82	106.778	-571.054	-251.511	51.023	-802.105	-321.322	86.533	-873.512	-424.966	179.572	-718.27	-294.391	175.036	-734.556	-139.822	390	-873.755	-189.407	335.773	-885.568	312.391	48.678	-757.681	242.32	47.87	-729.161	311.725	35.649	-644.367	-66.918	619.762	-875.475	-75.335	702.471	-866.15	-137.219	689.719	-844.442	120.254	624.67	-564.243	174.442	640.468	-596.822	188.393	561.457	-619.196	241.619	396.836	-633.516	248.793	312.199	-620.117	210.168	405.275	-579.248	-186.407	433.331	-865.109	-242.118	365.963	-863.822	216.22	322.488	-566.271	-130.274	603.73	-858.322	135.345	542.575	-587.103	211.571	36.108	-530.269	137.998	31.097	-599.757	-420.97	150.332	-787.672	-359.546	129.426	-702.979
5472	27.355	182.353	1605.522	-686.061	-107.55	1415.032	-770.504	56.517	1385.703	-483.9	51.407	1315.884	-674.47	-57.084	917.123	-793.111	81.575	915.363	-602.496	-115.158	921.591	-595.643	184.729	474.592	-618.321	105.489	451.682	-698.026	-125.224	476.491	-859.939	-57.963	441.776	-771.891	-347.862	187.575	-808.203	-240.646	46.531	-874.457	144.264	43.3	-522.45	166.644	109.708	-641.267	220.63	106.785	-571.323	-256.426	49.317	-803.347	-325.469	83.997	-875.701	-430.752	177.479	-721.817	-299.931	173.019	-736.489	-143.527	388.295	-874.669	-193.397	333.216	-886.325	312.47	48.487	-757.76	242.37	47.789	-729.233	311.767	35.612	-644.383	-70.174	617.671	-875.714	-78.253	700.651	-866.945	-140.063	688.384	-845.76	118.484	623.946	-565.913	172.459	640.175	-598.535	186.963	561.195	-620.904	240.733	396.657	-634.955	248.115	312.071	-621.253	209.214	405.144	-580.585	-191.509	430.496	-864.652	-246.301	363.689	-865.32	215.429	322.49	-567.451	-133.723	602.048	-858.786	134.091	541.953	-588.808	211.534	36.145	-530.33	138.09	31.042	-599.926	-425.969	148.476	-790.985	-365.519	127.323	-705.642
5473	27.36	178.285	1604.249	-686.329	-111.002	1413.135	-772.32	51.486	1384.3	-484.739	47.646	1314.299	-675.295	-59.897	915.649	-794.861	78.171	914.232	-603.69	-117.929	919.441	-597.823	183.565	474.289	-619.869	104.4	450.985	-699.687	-129.572	474.763	-860.148	-63.218	440.043	-771.563	-352.202	185.205	-810.717	-244.389	45.599	-875.187	144.23	43.31	-522.546	166.494	109.403	-641.595	220.437	106.828	-571.596	-260.878	47.798	-804.487	-329.267	81.225	-877.755	-436.319	174.863	-725.262	-305.235	170.809	-738.344	-147.195	386.728	-875.702	-197.476	330.129	-886.635	312.557	48.295	-757.84	242.425	47.702	-729.299	311.809	35.581	-644.403	-73.512	615.6	-875.885	-81.174	698.911	-867.704	-142.984	687.11	-847.131	116.454	623.352	-567.397	170.382	639.785	-600.03	185.445	560.994	-622.492	239.739	396.448	-636.221	247.315	311.991	-622.265	208.733	405.397	-581.484	-195.836	428.217	-865.492	-250.377	361.43	-866.8	214.72	322.564	-568.426	-137.217	600.49	-859.345	132.58	541.27	-590.447	211.479	36.178	-530.412	138.192	31.016	-600.107	-430.699	145.902	-794.223	-371.136	124.972	-708.174
5474	27.365	174.197	1602.914	-686.647	-114.489	1411.308	-774.143	46.368	1382.912	-485.565	43.835	1312.75	-676.135	-62.696	914.329	-796.644	74.664	913.144	-604.894	-120.915	917.421	-599.929	182.242	474.013	-621.277	103.187	450.308	-701.248	-134.07	473.064	-860.254	-68.612	438.362	-771.164	-356.338	182.561	-813.083	-247.62	44.982	-875.775	144.201	43.349	-522.649	166.353	109.114	-641.93	220.251	106.91	-571.867	-264.812	46.523	-805.494	-332.666	78.253	-879.644	-441.693	171.674	-728.582	-310.334	168.426	-740.096	-150.877	385.262	-876.799	-201.617	326.79	-886.666	312.651	48.104	-757.922	242.483	47.611	-729.356	311.853	35.554	-644.427	-76.933	613.58	-876.019	-84.27	697.154	-868.452	-146.012	685.88	-848.534	114.231	622.616	-568.829	168.145	639.551	-601.458	183.668	560.793	-623.878	238.637	396.369	-637.38	246.432	311.956	-623.22	207.543	405.345	-582.663	-200.385	425.959	-866.129	-255.147	358.085	-867.729	213.803	322.543	-569.416	-140.927	598.881	-859.777	130.991	540.785	-591.889	211.465	36.246	-530.506	138.29	31.007	-600.281	-435.19	142.511	-797.216	-376.404	122.373	-710.554
5475	27.37	170.192	1601.545	-686.94	-117.999	1409.575	-775.994	41.156	1381.55	-486.385	39.969	1311.245	-676.987	-65.687	912.926	-798.424	71.052	912.103	-606.102	-124.143	915.555	-601.95	180.744	473.762	-622.524	101.832	449.648	-702.676	-138.725	471.391	-860.261	-74.144	436.73	-770.697	-360.309	179.654	-815.276	-250.334	44.631	-876.224	144.177	43.409	-522.755	166.222	108.843	-642.264	220.075	107.025	-572.129	-268.205	45.519	-806.35	-335.648	75.133	-881.336	-446.893	167.916	-731.738	-315.261	165.899	-741.714	-154.666	383.823	-877.838	-205.805	323.466	-886.576	312.749	47.918	-758.003	242.544	47.518	-729.405	311.899	35.532	-644.452	-80.44	611.652	-876.151	-87.372	695.499	-869.218	-149.181	684.665	-849.925	111.926	621.976	-570.065	165.845	639.302	-602.742	181.684	560.561	-625.155	237.401	396.331	-638.495	245.495	311.917	-624.044	206.248	405.301	-583.809	-205.008	423.672	-866.798	-259.375	355.485	-868.904	212.825	322.552	-570.328	-144.695	597.347	-860.302	130.04	540.519	-593.659	211.458	36.318	-530.562	138.373	31.002	-600.437	-439.265	137.978	-800.115	-381.337	119.538	-712.761
5476	27.375	166.159	1600.204	-687.292	-121.527	1407.955	-777.878	35.845	1380.219	-487.204	36.045	1309.79	-677.849	-68.676	911.557	-800.151	67.329	911.117	-607.31	-127.609	913.84	-603.899	179.058	473.536	-623.592	100.32	449.004	-703.946	-143.537	469.744	-860.181	-79.803	435.149	-770.169	-364.167	176.508	-817.266	-252.583	44.495	-876.534	144.159	43.482	-522.864	166.097	108.591	-642.589	219.903	107.159	-572.378	-271.079	44.789	-807.05	-338.235	71.937	-882.808	-451.931	163.644	-734.682	-320.045	163.261	-743.167	-158.671	382.32	-878.661	-210.047	320.324	-886.46	312.85	47.737	-758.085	242.608	47.429	-729.448	311.947	35.515	-644.479	-84.035	609.856	-876.317	-90.502	693.989	-870.082	-152.521	683.45	-851.272	109.26	621.242	-571.262	163.264	638.973	-603.746	179.537	560.227	-626.155	236.099	396.339	-639.371	244.432	311.949	-624.807	204.852	405.271	-584.693	-209.827	421.263	-867.188	-263.75	352.753	-869.933	211.804	322.583	-571.098	-148.571	595.949	-860.948	126.749	539.692	-594.489	211.475	36.467	-530.616	138.437	30.996	-600.57	-443.029	132.615	-802.913	-385.955	116.487	-714.766
5477	27.38	162.099	1598.867	-687.699	-125.076	1406.456	-779.791	30.428	1378.924	-488.027	32.06	1308.395	-678.719	-71.796	910.196	-801.888	63.49	910.184	-608.508	-131.288	912.262	-605.806	177.177	473.334	-624.471	98.643	448.375	-705.039	-148.497	468.128	-860.03	-85.572	433.626	-769.593	-367.965	173.171	-819.015	-254.457	44.533	-876.714	144.145	43.565	-522.973	165.978	108.358	-642.901	219.726	107.295	-572.614	-273.496	44.318	-807.607	-340.486	68.754	-884.054	-456.81	158.944	-737.353	-324.71	160.552	-744.425	-162.981	380.692	-879.145	-214.359	317.431	-886.355	312.95	47.565	-758.165	242.672	47.352	-729.49	311.995	35.504	-644.509	-87.719	608.221	-876.542	-94.192	689.105	-867.228	-156.043	682.235	-852.559	106.419	620.711	-572.386	160.452	638.526	-604.61	177.156	559.929	-626.958	234.557	396.396	-640.194	243.308	312.073	-625.506	203.36	405.22	-585.454	-214.847	418.819	-867.514	-268.239	350.022	-870.776	210.685	322.645	-571.736	-151.841	595.15	-862.324	124.48	539.179	-595.45	212.1	37.12	-530.149	138.482	30.986	-600.681	-446.759	127.346	-805.36	-390.278	113.247	-716.541
